# xmcd
#
# Track frame offsets: 
#        150
#        14567
#        28134
#        41816
#        56348
#        69845
#        83917
#        94814
#        106606
#        117193
#        128025
#        141492
#        152014
#        164806
#        184878
#        195110
#        205907
#        216094
#        223791
#        237228
#        256300
#        265937
#        280244
#        289666
#
# Disc length: 3980 seconds
#
# Revision: 0
# Processed by: cddbd v1.4PL0 Copyright (c) Steve Scherf et al.
# Submitted via: ExactAudioCopy v0.95a3
#
DISCID=640f8a18
DTITLE=Various Artist - Kiwi Yodelling Kings
DYEAR=2002
DGENRE=Country
TTITLE0=Max McCauley - Blue Velvet Band
TTITLE1=Rodger Tibbs - Yodel Your Troubles Away
TTITLE2=Noel Parlane - The Old Waterwheel
TTITLE3=Max McCauley - Swiss Moonlight Lullaby
TTITLE4=roger tibbs - Where Did All The Yodellers Go
TTITLE5=Max McCauley - Blue Yodel No 6
TTITLE6=Noel Parlane - There's A Love Knot In My Lariat
TTITLE7=Roger Tibbs - Do What You Do Do Well
TTITLE8=Max McCauley - Yellow Rose Of Texas
TTITLE9=Roger Tibbs - Waiting For A Train
TTITLE10=Max McCauley - Lovesick Blues
TTITLE11=Roger Tibbs - Streamlined Yodel
TTITLE12=Max McCauley - The Shearers' Jamboree
TTITLE13=Roger Tibbs - Freight Train Yodel
TTITLE14=Max McCauley - Sunny South By The Sea
TTITLE15=Roger Tibbs - Yodel Boogie
TTITLE16=Max McCauley - I Miss My Swiss
TTITLE17=Roger Tibbs - Chime Bells
TTITLE18=Max McCauley - Rolling Wagons
TTITLE19=Roger Tibbs - Silver Wings
TTITLE20=Max McCauley - Ding Dong Bells
TTITLE21=Roger Tibbs - Wonderful World
TTITLE22=Max McCauley - I'll Bet You My Heart I Love You
TTITLE23=Max McCauley - Down By The Singing Waterfall
EXTD=
EXTT0=
EXTT1=
EXTT2=
EXTT3=
EXTT4=
EXTT5=
EXTT6=
EXTT7=
EXTT8=
EXTT9=
EXTT10=
EXTT11=
EXTT12=
EXTT13=
EXTT14=
EXTT15=
EXTT16=
EXTT17=
EXTT18=
EXTT19=
EXTT20=
EXTT21=
EXTT22=
EXTT23=
PLAYORDER=
